<?xml version="1.0" standalone="no"?>
<!DOCTYPE svg PUBLIC "-//W3C//DTD SVG 20010904//EN"
 "http://www.w3.org/TR/2001/REC-SVG-20010904/DTD/svg10.dtd">
<svg version="1.0" xmlns="http://www.w3.org/2000/svg"
 width="2041.000000pt" height="2041.000000pt" viewBox="0 0 2041.000000 2041.000000"
 preserveAspectRatio="xMidYMid meet">
<metadata>
Created by potrace 1.14, written by Peter Selinger 2001-2017
</metadata>
<g transform="translate(0.000000,2041.000000) scale(0.100000,-0.100000)"
fill="#000000" stroke="none">
<path d="M9825 20404 c-512 -26 -902 -66 -1330 -139 -3046 -517 -5698 -2392
-7202 -5090 -683 -1224 -1102 -2562 -1242 -3965 -38 -374 -46 -548 -45 -1010
0 -442 7 -603 40 -955 251 -2670 1554 -5147 3612 -6867 1477 -1236 3296 -2037
5192 -2287 491 -65 817 -86 1360 -85 442 0 603 7 955 40 3663 345 6868 2648
8362 6009 497 1116 774 2246 865 3520 17 237 17 1023 0 1260 -102 1432 -445
2703 -1062 3935 -1060 2118 -2816 3798 -4975 4757 -1113 495 -2235 771 -3505
863 -144 11 -890 21 -1025 14z m1015 -5085 c241 -22 419 -55 560 -104 41 -14
95 -30 120 -36 43 -10 199 -83 210 -99 3 -4 17 -10 31 -13 14 -4 46 -25 70
-47 24 -22 52 -43 61 -46 10 -3 38 -24 62 -47 24 -23 56 -49 72 -57 31 -16
157 -139 274 -266 41 -45 95 -103 118 -129 44 -47 162 -259 162 -290 0 -9 13
-44 29 -78 52 -112 75 -171 86 -221 3 -15 12 -34 18 -41 15 -14 81 -251 97
-345 6 -36 12 -74 15 -85 58 -292 56 -281 85 -535 6 -52 22 -137 36 -188 34
-131 34 -131 -20 -121 -24 4 -80 17 -125 29 -86 22 -172 34 -545 75 -273 30
-594 34 -766 10 -95 -13 -138 -21 -320 -57 -52 -10 -140 -57 -187 -100 -20
-18 -25 -19 -60 -7 -54 20 -378 16 -503 -5 -138 -23 -171 -21 -222 13 -69 46
-200 111 -222 111 -12 0 -30 6 -41 13 -39 27 -211 90 -265 97 -30 5 -104 20
-165 35 -267 64 -325 69 -850 69 -428 0 -490 -2 -570 -19 -52 -10 -157 -21
-250 -24 -88 -3 -168 -11 -179 -17 -20 -12 -107 3 -88 15 13 9 42 67 42 86 0
18 27 82 71 168 16 31 29 63 29 70 0 6 27 66 59 132 134 272 128 248 150 565
7 96 17 157 35 210 61 186 99 283 141 359 25 45 45 87 45 95 0 7 31 54 69 104
38 49 68 92 65 94 -2 2 14 23 36 46 22 23 40 45 40 50 0 20 180 170 222 185
10 4 43 22 73 42 31 19 77 40 103 46 26 6 88 25 137 41 150 49 225 66 340 77
61 6 155 22 211 36 154 37 265 55 424 65 80 5 195 17 255 26 221 32 465 36
725 13z m-1850 -2545 c271 -36 423 -67 600 -123 36 -11 73 -21 82 -21 25 0
177 -52 263 -90 11 -4 32 -11 46 -14 15 -3 61 -33 102 -67 l76 -61 6 -74 c7
-75 2 -174 -16 -294 -10 -69 -54 -211 -75 -245 -6 -11 -15 -31 -19 -45 -13
-47 -157 -335 -191 -381 -19 -26 -34 -51 -34 -57 0 -17 -111 -98 -171 -125
-30 -14 -74 -30 -99 -37 -25 -6 -76 -20 -115 -31 -155 -42 -537 -49 -795 -14
-259 35 -432 74 -555 125 -49 21 -104 43 -122 50 -37 14 -136 115 -158 162 -9
18 -24 49 -35 69 -35 66 -69 193 -79 294 -6 55 -15 141 -22 190 -17 131 -6
502 16 575 24 77 78 121 195 160 46 15 287 57 420 74 71 8 578 -6 680 -20z
m3172 -194 c95 -11 211 -27 258 -35 47 -8 123 -19 170 -26 97 -12 301 -60 375
-86 51 -19 77 -33 152 -84 23 -16 46 -29 51 -29 24 0 111 -83 123 -117 11 -36
15 -225 4 -242 -3 -6 -10 -85 -15 -178 -13 -241 -54 -509 -93 -603 -36 -90
-104 -188 -145 -213 -44 -25 -243 -74 -352 -86 -251 -27 -552 -21 -775 15
-181 28 -316 55 -363 70 -294 98 -383 198 -502 569 -32 101 -54 192 -60 245
-5 47 -17 153 -26 235 -19 176 -15 266 13 312 21 36 89 93 109 93 7 0 14 4 16
9 7 17 147 82 199 91 483 86 579 92 861 60z m-4562 -73 c0 -30 -5 -125 -11
-213 -20 -273 11 -623 68 -774 14 -36 31 -83 39 -105 36 -97 224 -231 379
-270 28 -7 105 -29 172 -48 219 -65 394 -82 823 -82 359 0 427 8 565 65 116
48 168 82 233 151 34 37 62 69 62 72 0 3 26 45 58 94 57 86 73 122 145 313
163 435 201 502 294 513 70 10 220 -16 284 -48 103 -52 134 -109 165 -302 19
-123 66 -307 95 -372 10 -24 19 -50 19 -57 0 -19 78 -173 96 -191 8 -8 14 -23
14 -33 0 -9 18 -36 39 -58 22 -22 47 -52 57 -67 38 -58 209 -164 266 -165 10
0 56 -11 102 -25 141 -40 342 -76 506 -89 338 -27 813 19 965 93 l40 19 3 -27
c3 -27 -41 -379 -59 -475 -5 -27 -9 -74 -9 -105 -1 -31 -9 -94 -19 -141 -18
-83 -19 -84 -26 -45 -10 58 -14 67 -25 60 -6 -4 -9 -27 -7 -53 3 -26 2 -37 0
-24 -9 44 -23 21 -24 -40 -1 -35 -3 -55 -6 -45 -11 41 -21 12 -15 -45 5 -56 4
-62 -11 -50 -18 15 -34 -2 -20 -21 6 -7 9 -25 8 -42 -1 -16 -4 -46 -5 -65 -1
-19 -4 -27 -7 -17 -10 38 -23 14 -23 -43 0 -37 -4 -60 -11 -60 -6 0 -9 7 -5
15 3 8 1 15 -4 15 -6 0 -10 -42 -11 -97 0 -69 -3 -91 -9 -75 -17 41 -28 23
-23 -37 3 -34 1 -66 -5 -77 -6 -11 -12 -13 -12 -6 0 6 -4 12 -10 12 -5 0 -11
-24 -11 -52 -1 -55 -16 -130 -18 -93 -1 13 -4 16 -11 9 -6 -6 -16 -61 -22
-122 -11 -108 -28 -152 -28 -74 0 46 -9 82 -21 82 -5 0 -9 -34 -9 -76 0 -47
-4 -73 -10 -69 -5 3 -10 18 -11 33 -1 53 -17 -9 -25 -93 l-7 -80 -14 48 c-7
26 -17 47 -22 47 -5 0 -7 -48 -5 -107 1 -60 1 -97 -2 -83 -14 75 -39 158 -46
154 -4 -3 -8 -42 -9 -87 0 -45 -3 -76 -6 -69 -13 33 -21 4 -17 -65 2 -43 1
-72 -2 -64 -30 64 -77 98 -55 39 4 -12 11 -44 15 -70 6 -41 5 -47 -8 -42 -13
5 -15 -3 -11 -48 4 -47 3 -49 -3 -11 -9 45 -29 76 -44 67 -5 -3 -7 -29 -5 -57
2 -29 -2 -74 -9 -102 l-12 -50 -1 45 c-1 51 -18 120 -29 120 -4 0 -6 -33 -5
-72 3 -70 2 -72 -10 -35 -6 21 -16 37 -21 35 -4 -2 -9 -47 -11 -101 -3 -99
-15 -149 -15 -66 0 56 -22 141 -38 147 -8 2 -10 -5 -7 -25 3 -15 1 -57 -4 -93
-7 -55 -9 -58 -10 -23 -1 48 -9 73 -22 73 -6 0 -8 -25 -6 -55 5 -65 -8 -83
-18 -25 -4 22 -15 50 -26 62 l-19 23 5 -25 c6 -31 8 -59 6 -85 -1 -17 -3 -18
-11 -5 -5 8 -10 25 -10 36 0 29 -40 124 -52 124 -5 0 -7 -14 -3 -32 l7 -33
-25 35 c-13 19 -32 52 -42 73 -17 36 -44 54 -30 20 18 -45 23 -72 13 -75 -6
-2 -6 -23 1 -63 6 -32 11 -70 11 -84 0 -25 -1 -25 -21 8 -23 38 -34 37 -19 -3
5 -15 10 -80 9 -144 l-1 -117 -22 68 c-12 38 -25 65 -29 61 -4 -4 -7 -55 -8
-113 l-1 -106 -13 54 c-8 30 -21 61 -31 70 -16 15 -16 15 -9 -4 4 -11 9 -67
12 -125 5 -101 1 -140 -29 -260 l-14 -55 -8 48 c-9 56 -26 63 -26 10 -1 -36
-1 -37 -13 -15 -18 32 -25 19 -19 -37 2 -28 0 -51 -6 -55 -10 -6 -15 9 -27 91
-5 29 -13 44 -25 48 -10 3 -24 19 -31 35 -20 44 -26 28 -22 -57 l3 -78 -21 68
c-23 69 -46 92 -36 35 4 -18 9 -62 11 -98 5 -59 4 -62 -6 -30 -11 36 -57 105
-64 97 -2 -2 3 -20 11 -40 17 -41 20 -74 3 -40 -13 27 -44 42 -33 16 12 -28
25 -86 25 -110 0 -28 -26 -21 -33 9 -7 27 -23 16 -31 -22 -6 -30 -26 -34 -26
-4 0 8 -4 14 -10 14 -8 0 -15 -46 -11 -72 0 -5 -3 -8 -9 -8 -5 0 -15 20 -21
45 -14 55 -29 58 -30 8 l-1 -38 -14 44 c-22 71 -36 75 -31 9 4 -54 -13 -171
-27 -185 -3 -4 -6 36 -6 88 0 107 -6 139 -26 139 -8 0 -14 10 -14 24 0 45 -20
39 -21 -6 -1 -24 -4 -56 -8 -73 -6 -24 -8 -15 -14 44 -15 149 -51 233 -44 99
3 -40 3 -59 1 -43 -9 62 -49 203 -57 198 -4 -2 -5 -46 -2 -96 3 -51 2 -121 -2
-157 -9 -64 -9 -64 -15 60 -4 69 -12 139 -19 155 l-13 30 -6 -55 c-4 -35 -7
-43 -8 -22 -1 17 -6 32 -12 32 -6 0 -10 -33 -11 -77 l-1 -78 -13 85 c-15 95
-22 123 -42 160 -16 31 -16 35 -15 -145 l1 -150 -14 105 c-12 101 -40 217 -54
233 -4 4 -5 -73 -3 -170 2 -98 -1 -198 -6 -223 -7 -39 -10 -26 -16 95 -9 153
-37 297 -63 323 -16 16 -16 16 -9 -3 23 -60 32 -307 17 -455 -6 -64 -6 -63
-13 48 -10 172 -66 452 -90 452 -5 0 -7 -8 -5 -17 22 -81 37 -251 27 -296 -8
-30 -8 -30 -9 13 -1 25 -6 63 -11 85 -40 180 -53 231 -62 240 -6 7 -8 -17 -4
-70 3 -44 3 -73 0 -65 -3 8 -12 34 -20 58 -21 58 -35 53 -29 -10 17 -187 11
-226 -16 -90 -6 34 -16 62 -20 62 -5 0 -10 -44 -10 -97 -2 -97 -2 -97 -9 -33
-4 36 -12 77 -18 91 -8 20 -7 30 3 40 10 10 14 50 16 144 1 72 5 135 10 140 9
12 18 120 25 303 4 106 8 132 20 132 7 0 14 4 14 10 0 5 3 10 8 9 15 -2 52 14
52 23 0 5 8 8 18 6 15 -3 17 5 16 62 -1 76 -29 183 -47 177 -7 -2 -18 3 -24
12 -11 13 -12 0 -8 -69 2 -47 2 -74 -1 -60 -14 80 -28 129 -36 124 -5 -3 -6
-22 -4 -42 5 -30 4 -32 -3 -12 -5 14 -9 37 -10 53 -2 55 -21 25 -23 -35 -2
-60 -2 -60 -5 -13 -7 105 -28 87 -34 -30 -2 -53 -3 -55 -6 -17 -3 25 -10 45
-19 49 -8 3 -14 16 -14 28 0 13 -4 27 -10 30 -6 4 -10 -18 -11 -57 -1 -47 -3
-57 -9 -38 -4 14 -8 44 -9 68 -1 29 -5 41 -12 36 -7 -4 -9 -27 -6 -63 l6 -56
-16 63 c-8 34 -19 62 -24 62 -5 0 -10 -42 -10 -92 -1 -51 -4 -79 -5 -63 -18
155 -41 213 -45 115 -2 -30 -3 -31 -6 -7 -8 53 -31 21 -34 -48 -1 -28 -2 -27
-10 10 -13 55 -29 68 -30 25 -1 -24 -3 -28 -6 -12 -7 35 -21 26 -26 -15 -3
-31 -4 -29 -5 15 -2 53 -22 75 -22 25 -1 -27 -1 -27 -16 7 -12 27 -17 32 -24
20 -8 -12 -10 -12 -10 -1 0 8 -7 11 -20 8 -11 -3 -20 -1 -20 4 0 13 -21 11
-55 -6 l-30 -15 23 19 c38 33 28 45 -32 37 -63 -7 -86 -14 -86 -28 0 -5 19 -6
48 -2 l47 6 -34 -35 c-32 -34 -35 -57 -7 -57 7 0 30 14 51 30 49 39 59 39 18
-1 -23 -21 -33 -39 -33 -60 0 -18 4 -28 10 -24 6 3 10 12 10 20 0 8 4 17 10
20 7 4 7 -3 0 -20 -6 -15 -10 -33 -10 -41 0 -17 26 -19 33 -1 3 7 6 5 6 -5 1
-25 20 -22 31 5 7 17 9 18 9 5 2 -32 21 -19 22 15 1 17 5 43 9 57 6 18 8 8 9
-38 1 -55 4 -65 21 -69 11 -3 20 -12 20 -19 0 -17 29 -19 32 -1 1 6 4 -13 7
-43 7 -62 23 -73 58 -40 13 11 25 16 28 10 11 -18 25 -11 25 12 l0 22 19 -21
c12 -12 21 -39 23 -64 3 -38 6 -44 25 -43 20 0 22 -4 22 -60 0 -141 19 -383
31 -403 11 -17 11 -35 -2 -104 l-16 -84 -1 65 c-1 88 -15 68 -40 -60 l-21
-105 5 76 c3 42 10 90 15 108 6 23 5 31 -4 31 -7 0 -20 -25 -30 -55 -9 -30
-23 -60 -30 -67 -7 -7 -11 -19 -8 -27 2 -7 0 -16 -6 -20 -6 -4 -20 -54 -31
-111 -23 -127 -28 -75 -6 75 8 55 15 108 15 118 0 28 -16 19 -28 -15 -6 -18
-18 -53 -28 -78 -9 -25 -25 -83 -35 -130 l-17 -85 -1 117 c-1 64 3 128 9 142
5 14 5 28 1 31 -8 4 -43 -68 -54 -110 -2 -11 -5 6 -6 38 -2 83 -21 70 -22 -15
-1 -40 -5 -104 -9 -143 -4 -38 -5 13 -2 114 4 127 2 182 -5 178 -6 -4 -13 -19
-16 -34 -3 -16 -15 -66 -26 -113 -11 -47 -24 -119 -28 -160 -7 -70 -8 -63 -14
93 -9 246 -23 240 -73 -33 l-24 -135 -1 85 c0 47 6 117 13 155 8 40 10 74 5
79 -9 10 -29 -33 -29 -62 0 -10 -6 -27 -14 -38 -12 -16 -83 -283 -99 -374 -3
-14 -3 22 0 80 4 107 9 138 26 180 12 29 57 213 54 217 -11 10 -80 -123 -97
-185 -6 -24 -13 -42 -15 -40 -5 5 21 194 31 226 3 12 2 22 -3 22 -13 0 -28
-30 -64 -130 l-30 -85 5 55 c2 30 8 66 12 80 7 22 6 24 -9 11 -9 -7 -17 -19
-17 -25 0 -24 -25 -66 -37 -61 -9 3 -13 -5 -13 -23 0 -15 -5 -45 -11 -67 -6
-22 -15 -60 -20 -85 -6 -35 -7 -26 -4 41 2 54 12 108 25 145 12 32 24 67 27
78 9 29 -18 15 -44 -24 l-23 -33 0 39 c0 21 5 57 10 79 5 22 7 42 4 44 -8 8
-24 -22 -24 -46 0 -15 -5 -21 -14 -17 -13 5 -36 -33 -50 -81 -3 -11 -3 1 -1
28 4 44 -6 63 -19 35 -3 -7 -3 -1 0 15 4 16 2 27 -5 27 -6 0 -11 -6 -11 -14 0
-7 -12 -35 -26 -62 -15 -27 -35 -74 -45 -104 -13 -40 -18 -48 -18 -28 -1 26
31 175 44 211 4 10 3 17 -4 17 -12 0 -51 -80 -51 -104 0 -9 -9 -32 -20 -53
-10 -21 -26 -69 -34 -106 -7 -37 -17 -71 -20 -74 -17 -18 12 275 33 330 11 28
1 37 -16 15 -18 -24 -52 -123 -63 -183 -6 -33 -17 -87 -25 -120 -12 -52 -13
-55 -14 -24 -2 60 19 238 30 267 6 15 15 41 20 57 l8 30 -33 -37 c-18 -21 -41
-62 -51 -93 -14 -39 -21 -51 -26 -38 -5 16 -7 16 -18 -2 -12 -20 -12 -20 -7 0
20 88 38 160 43 173 4 9 2 13 -4 9 -6 -4 -32 -50 -58 -102 -25 -52 -49 -95
-52 -95 -3 0 -4 38 -1 85 4 82 -6 115 -18 56 -4 -20 -12 -29 -24 -28 -16 1
-16 4 -3 45 9 24 12 46 8 50 -4 4 -9 3 -12 -3 -12 -33 -63 -107 -63 -92 0 9
-3 17 -6 17 -8 0 -29 -22 -42 -45 -25 -43 -12 13 17 71 15 32 33 73 38 89 6
17 14 38 18 48 7 17 6 18 -14 6 -11 -8 -21 -19 -21 -26 0 -14 -41 -55 -48 -48
-3 2 2 15 11 29 21 31 8 43 -16 14 -18 -23 -18 -23 -2 10 22 45 12 52 -25 17
l-30 -28 9 29 c14 48 34 88 55 111 29 33 15 37 -28 8 -21 -14 -34 -20 -30 -14
4 7 1 10 -7 7 -15 -5 -64 -97 -74 -140 -4 -16 -10 -28 -15 -28 -16 0 48 161
69 174 5 3 17 28 27 54 9 26 26 57 37 69 11 13 17 26 13 30 -5 5 -27 -14 -50
-41 -22 -27 -56 -65 -73 -85 l-33 -36 15 55 c9 30 20 63 25 72 12 21 -4 33
-19 14 -6 -7 -23 -35 -37 -62 -44 -83 -55 -84 -30 -2 13 41 29 84 35 97 14 24
9 37 -9 26 -11 -7 -59 -77 -72 -105 -5 -12 -7 -11 -7 3 -1 25 39 117 61 141
10 11 18 23 18 28 0 16 -22 7 -45 -18 -14 -15 -25 -24 -25 -21 0 12 45 102 53
105 13 6 8 22 -7 22 -13 0 -61 -56 -61 -70 0 -3 -8 -16 -18 -30 -39 -55 -12 5
61 140 27 49 19 68 -12 26 -11 -16 -40 -52 -64 -80 -39 -46 -72 -105 -114
-206 -9 -19 -20 -46 -26 -60 -11 -24 -11 -24 -6 5 7 37 71 234 84 257 13 24
12 28 -4 22 -8 -3 -34 -37 -56 -75 -23 -38 -44 -69 -46 -69 -8 0 42 117 63
149 13 19 21 37 18 40 -9 9 -86 -76 -96 -106 -7 -23 -8 -21 -3 12 3 22 8 50
11 63 3 12 1 22 -4 22 -6 0 -25 -38 -44 -84 -19 -47 -35 -83 -37 -81 -6 6 30
130 44 153 9 14 10 22 4 22 -16 0 -35 -21 -59 -66 -19 -36 -20 -36 -15 -9 8
36 40 101 54 110 5 3 10 13 10 21 0 26 -58 -26 -81 -73 -31 -65 -34 -46 -4 33
14 38 24 77 21 87 -2 9 0 17 5 17 5 0 9 5 9 10 0 32 -24 -1 -87 -119 -19 -36
-23 -40 -23 -20 0 34 54 208 79 254 22 42 27 75 12 75 -5 0 -28 -28 -50 -61
-23 -34 -41 -57 -41 -53 0 14 58 156 81 198 15 27 18 37 8 34 -20 -6 -88 -98
-96 -128 -3 -14 -17 -41 -30 -60 l-25 -35 7 35 c4 19 15 60 25 90 10 30 27 87
39 126 11 39 30 83 42 98 12 15 19 30 15 33 -9 9 -76 -66 -76 -86 0 -10 -8
-25 -18 -35 -11 -9 -31 -48 -47 -87 -15 -38 -29 -68 -32 -65 -6 6 69 227 92
273 9 18 14 37 10 43 -3 5 -1 10 4 10 6 0 11 5 11 10 0 6 -3 10 -7 10 -9 0
-67 -85 -100 -145 l-22 -40 0 30 c-1 31 25 121 53 187 19 43 19 48 7 48 -5 0
-19 -17 -32 -37 -17 -29 -24 -34 -27 -20 -6 27 -18 20 -30 -15 -10 -33 -10
-33 -11 15 -1 55 -16 62 -25 12 -4 -19 -11 -37 -16 -40 -5 -3 -8 0 -5 7 11 29
22 108 15 108 -4 0 -15 -15 -24 -32 l-17 -33 4 60 c2 33 7 68 12 79 6 14 5 18
-6 14 -8 -2 -24 -24 -36 -49 -12 -24 -22 -39 -22 -33 -2 24 30 112 44 124 8 7
15 17 15 22 0 18 -31 -9 -65 -57 l-35 -49 0 50 c0 29 7 59 16 72 8 12 12 22 7
22 -16 0 -30 -15 -37 -38 -4 -12 -11 -20 -16 -17 -12 8 -31 -30 -46 -90 -14
-56 -17 -34 -5 37 4 26 4 45 -1 42 -10 -6 -10 -9 3 62 6 32 19 74 30 93 21 36
16 58 -6 28 -12 -16 -13 -16 -19 -1 -6 16 -8 16 -23 2 -10 -11 -19 -48 -25
-115 -13 -132 -28 -195 -22 -90 4 72 13 148 30 240 4 25 3 37 -5 37 -6 0 -11
-5 -11 -12 0 -6 -3 -9 -6 -6 -3 3 2 23 11 43 30 73 -6 56 -41 -19 -33 -70 -30
-42 13 133 5 21 4 22 -15 12 -12 -6 -26 -19 -32 -29 -9 -13 -10 -7 -5 28 3 25
8 55 12 68 3 12 1 22 -6 22 -6 0 -13 -12 -16 -27 -15 -71 -29 -119 -38 -131
-5 -6 -13 -27 -17 -45 -8 -31 -8 -30 -9 13 -1 75 18 184 34 193 22 12 18 26
-6 20 -12 -3 -27 -20 -34 -37 l-13 -31 -7 28 c-4 15 -2 48 4 74 9 34 9 48 1
53 -14 9 -11 110 4 129 8 11 8 15 -1 18 -7 3 -13 17 -13 31 0 28 -18 86 -34
111 -6 9 -5 12 1 8 5 -3 10 0 10 7 0 7 -5 13 -11 14 -29 3 -44 9 -64 28 -22
20 -23 29 -37 470 -11 333 -13 474 -5 546 6 54 10 128 8 165 -6 178 17 396 67
649 13 67 29 162 36 213 l12 91 53 0 54 0 0 -53z m-565 -429 c14 -6 25 -15 25
-20 0 -4 13 -20 29 -35 38 -37 40 -46 51 -219 13 -221 39 -362 95 -509 20 -53
28 -101 35 -200 5 -71 16 -200 24 -285 8 -85 14 -234 14 -332 0 -168 9 -227
31 -213 13 7 21 -32 21 -100 l0 -60 -61 -56 c-134 -123 -237 -100 -369 82 -44
60 -120 210 -120 236 0 5 -15 45 -34 89 -18 44 -36 98 -39 120 -3 21 -8 55
-11 74 -3 19 -8 49 -10 65 -2 17 -9 120 -16 230 -6 110 -15 272 -20 360 -14
222 -12 327 5 416 14 76 40 155 57 174 4 5 8 19 8 32 0 13 5 23 10 23 6 0 10
6 10 13 0 19 57 71 110 101 49 28 112 34 155 14z m502 -2380 c-3 -8 -6 -5 -6
6 -1 11 2 17 5 13 3 -3 4 -12 1 -19z m200 -80 c-3 -8 -6 -5 -6 6 -1 11 2 17 5
13 3 -3 4 -12 1 -19z m50 -190 c-3 -8 -6 -5 -6 6 -1 11 2 17 5 13 3 -3 4 -12
1 -19z m190 -240 c-3 -8 -6 -5 -6 6 -1 11 2 17 5 13 3 -3 4 -12 1 -19z m2024
-425 c-12 -20 -14 -14 -5 12 4 9 9 14 11 11 3 -2 0 -13 -6 -23z m216 -40 c-3
-10 -5 -4 -5 12 0 17 2 24 5 18 2 -7 2 -21 0 -30z m350 -60 c-3 -10 -5 -2 -5
17 0 19 2 27 5 18 2 -10 2 -26 0 -35z m-109 -160 c2 -37 1 -65 -3 -62 -9 9
-16 141 -7 135 4 -2 9 -35 10 -73z m-2231 -75 c-3 -8 -6 -5 -6 6 -1 11 2 17 5
13 3 -3 4 -12 1 -19z m2190 -340 c-3 -7 -5 -2 -5 12 0 14 2 19 5 13 2 -7 2
-19 0 -25z m-1466 -264 c-9 -28 -9 -29 -10 -3 -1 14 2 29 6 32 11 12 13 2 4
-29z m-1024 -11 c-3 -10 -5 -4 -5 12 0 17 2 24 5 18 2 -7 2 -21 0 -30z m890
-15 c-3 -8 -6 -5 -6 6 -1 11 2 17 5 13 3 -3 4 -12 1 -19z m1770 -55 c-3 -10
-5 -4 -5 12 0 17 2 24 5 18 2 -7 2 -21 0 -30z m-2660 5 c-3 -8 -6 -5 -6 6 -1
11 2 17 5 13 3 -3 4 -12 1 -19z m3710 -70 c-3 -7 -5 -2 -5 12 0 14 2 19 5 13
2 -7 2 -19 0 -25z m-3414 -11 c4 3 7 4 7 0 0 -18 -21 -14 -30 5 -10 21 -10 21
3 6 8 -10 17 -15 20 -11z m12 -39 c5 4 5 1 1 -6 -6 -10 -11 -10 -22 -1 -8 6
-14 14 -14 16 0 3 6 0 13 -6 8 -6 18 -7 22 -3z m-308 -70 c-3 -7 -5 -2 -5 12
0 14 2 19 5 13 2 -7 2 -19 0 -25z m2260 0 c-3 -8 -6 -5 -6 6 -1 11 2 17 5 13
3 -3 4 -12 1 -19z m-1832 -26 c-3 -3 -11 0 -18 7 -9 10 -8 11 6 5 10 -3 15 -9
12 -12z m2852 -64 c-2 -13 -4 -3 -4 22 0 25 2 35 4 23 2 -13 2 -33 0 -45z
m742 -381 c7 -12 28 -33 47 -47 20 -14 50 -37 67 -52 17 -16 39 -28 47 -28 9
0 31 -11 50 -25 18 -13 49 -30 69 -36 38 -12 137 -105 143 -135 1 -9 12 -22
22 -28 34 -19 65 -60 78 -99 6 -21 20 -43 30 -48 10 -5 18 -15 18 -22 0 -7 15
-35 33 -63 19 -28 34 -57 34 -65 0 -8 16 -48 37 -89 40 -82 61 -153 72 -245 3
-33 10 -64 14 -70 4 -5 7 -74 6 -153 0 -78 3 -142 7 -142 5 0 6 -8 3 -17 -3
-10 -8 -50 -10 -89 -3 -39 -9 -89 -14 -110 -6 -22 -11 -62 -11 -90 0 -29 -5
-64 -11 -79 -6 -15 -8 -30 -5 -35 3 -4 -4 -34 -15 -65 -11 -32 -20 -65 -20
-74 0 -9 -14 -43 -30 -76 -16 -33 -30 -68 -30 -79 0 -24 -60 -136 -73 -136 -6
0 -8 -3 -5 -6 4 -3 -8 -33 -25 -66 -18 -33 -38 -72 -46 -87 -7 -14 -24 -37
-36 -51 -12 -14 -25 -32 -29 -40 -3 -8 -20 -33 -37 -55 -16 -22 -41 -57 -54
-77 -14 -21 -29 -38 -34 -38 -5 0 -25 -21 -45 -47 -19 -27 -58 -66 -85 -88
-28 -22 -50 -47 -51 -56 0 -9 -16 -27 -36 -41 -32 -23 -87 -70 -182 -155 -20
-18 -43 -33 -52 -33 -8 0 -30 -16 -47 -35 -18 -19 -34 -35 -37 -35 -9 0 -206
-97 -219 -108 -8 -7 -40 -21 -71 -32 -31 -10 -69 -28 -84 -38 -15 -11 -49 -27
-75 -36 -27 -9 -55 -23 -64 -31 -8 -8 -26 -15 -40 -15 -14 0 -59 -16 -99 -35
-40 -19 -87 -38 -104 -41 -16 -4 -30 -10 -30 -13 0 -4 -28 -13 -61 -20 -34 -7
-71 -18 -83 -25 -11 -8 -41 -17 -65 -20 -24 -4 -55 -13 -70 -20 -29 -15 -196
-46 -248 -46 -18 0 -33 -4 -33 -9 0 -5 -26 -11 -57 -14 -32 -3 -105 -9 -163
-15 -107 -9 -244 -8 -380 3 -41 4 -88 8 -105 9 -16 1 -55 6 -85 11 -30 5 -59
8 -64 6 -5 -1 -32 3 -60 9 -28 5 -64 11 -81 11 -16 1 -54 10 -83 20 -29 11
-64 19 -77 19 -13 0 -46 9 -74 19 -27 11 -57 20 -67 19 -11 0 -39 7 -63 16
-24 9 -58 16 -75 16 -17 0 -40 6 -51 14 -22 14 -78 34 -120 42 -15 3 -45 14
-66 24 -21 11 -50 20 -63 20 -14 0 -51 11 -82 25 -31 14 -60 25 -65 25 -5 0
-29 16 -55 35 -25 19 -52 35 -60 35 -8 0 -14 4 -14 9 0 5 -12 12 -28 15 -15 4
-44 22 -65 41 -21 20 -47 37 -56 38 -10 2 -44 25 -75 52 l-56 50 55 55 c115
115 152 150 161 150 13 1 54 37 54 48 0 5 14 20 31 33 18 13 40 33 50 44 49
53 82 85 145 140 38 33 91 81 118 108 27 26 52 47 55 47 4 0 29 23 56 50 27
28 55 50 61 50 7 0 14 4 16 8 2 4 32 34 68 66 36 32 90 82 121 110 31 28 86
78 123 111 37 33 86 79 110 103 23 23 46 42 50 42 4 0 31 25 59 55 28 30 55
55 60 55 5 0 29 19 52 43 64 64 174 167 180 167 6 0 157 143 181 172 6 7 42
41 80 75 38 34 92 83 119 109 28 25 67 57 88 70 20 13 37 28 37 33 0 6 9 12
19 16 11 3 23 15 26 26 4 10 19 26 34 33 15 8 47 35 71 60 25 25 48 46 52 46
4 0 33 26 65 58 96 93 157 148 181 161 12 6 22 16 22 21 0 12 61 69 74 70 4 0
31 25 60 55 28 30 54 55 57 55 4 0 28 21 55 48 27 26 81 74 119 107 124 107
195 177 188 188 -3 6 -1 7 5 3 13 -8 64 33 56 46 -3 4 2 8 10 8 9 0 16 4 16 9
0 5 9 13 20 16 11 4 32 17 48 29 15 13 52 36 82 52 100 51 292 223 410 367
l55 66 6 -210 c4 -134 10 -218 18 -232z m-3514 373 c3 -6 -1 -7 -9 -4 -18 7
-21 14 -7 14 6 0 13 -4 16 -10z m95 -75 c7 -9 10 -18 6 -22 -3 -3 -6 -1 -6 6
0 6 -10 16 -22 21 -16 6 -18 9 -7 9 9 1 22 -6 29 -14z m2667 -27 c-3 -8 -6 -5
-6 6 -1 11 2 17 5 13 3 -3 4 -12 1 -19z m-2672 -48 c-3 -5 -12 -10 -18 -10 -7
0 -6 4 3 10 19 12 23 12 15 0z m255 -160 c0 -5 -2 -10 -4 -10 -3 0 -8 5 -11
10 -3 6 -1 10 4 10 6 0 11 -4 11 -10z m138 -75 c-3 -3 -9 2 -12 12 -6 14 -5
15 5 6 7 -7 10 -15 7 -18z m50 -6 c-3 -8 -7 -3 -11 10 -4 17 -3 21 5 13 5 -5
8 -16 6 -23z m-1041 -31 c-3 -7 -5 -2 -5 12 0 14 2 19 5 13 2 -7 2 -19 0 -25z
m1217 -56 c3 -5 -1 -9 -9 -9 -8 0 -15 4 -15 9 0 4 4 8 9 8 6 0 12 -4 15 -8z
m1974 -102 c-7 -10 -14 -17 -17 -15 -4 4 18 35 25 35 2 0 -1 -9 -8 -20z
m-1791 -16 c-3 -3 -12 -4 -19 -1 -8 3 -5 6 6 6 11 1 17 -2 13 -5z m-1420 -39
c0 -8 -4 -12 -9 -9 -5 3 -6 10 -3 15 9 13 12 11 12 -6z m3133 11 c0 -2 -7 -7
-16 -10 -8 -3 -12 -2 -9 4 6 10 25 14 25 6z m-1435 -66 c3 -5 1 -10 -4 -10 -6
0 -11 5 -11 10 0 6 2 10 4 10 3 0 8 -4 11 -10z m-88 -16 c-3 -3 -12 -4 -19 -1
-8 3 -5 6 6 6 11 1 17 -2 13 -5z m348 -44 c-3 -5 -12 -10 -18 -10 -7 0 -6 4 3
10 19 12 23 12 15 0z m262 -6 c-3 -3 -12 -4 -19 -1 -8 3 -5 6 6 6 11 1 17 -2
13 -5z m153 2 c0 -2 -7 -7 -16 -10 -8 -3 -12 -2 -9 4 6 10 25 14 25 6z m220
-40 c0 -2 -7 -6 -15 -10 -8 -3 -15 -1 -15 4 0 6 7 10 15 10 8 0 15 -2 15 -4z
m-2826 -51 c-4 -8 -8 -15 -10 -15 -2 0 -4 7 -4 15 0 8 4 15 10 15 5 0 7 -7 4
-15z m-144 -1925 c0 -5 -2 -10 -4 -10 -3 0 -8 5 -11 10 -3 6 -1 10 4 10 6 0
11 -4 11 -10z m35 -100 c3 -5 2 -10 -4 -10 -5 0 -13 5 -16 10 -3 6 -2 10 4 10
5 0 13 -4 16 -10z m369 -426 c3 -8 2 -12 -4 -9 -6 3 -10 10 -10 16 0 14 7 11
14 -7z"/>
<path d="M9045 13649 c-38 -5 -115 -20 -170 -34 -55 -13 -116 -27 -135 -31
-37 -7 -121 -41 -182 -74 -20 -11 -45 -20 -56 -20 -19 0 -124 -63 -152 -92 -9
-8 -25 -18 -36 -22 -11 -3 -40 -26 -65 -51 -24 -24 -48 -45 -53 -45 -11 0
-176 -169 -176 -180 0 -4 -13 -24 -30 -45 -38 -48 -41 -95 -6 -95 17 0 30 10
44 34 12 19 38 46 59 59 21 14 49 37 63 52 14 15 75 51 135 80 154 73 173 81
235 93 30 7 98 24 150 39 143 41 315 36 745 -22 152 -20 251 -14 311 21 23 14
44 30 47 37 6 17 -20 114 -38 140 -8 12 -15 29 -15 39 0 20 -50 58 -78 58 -11
0 -22 4 -24 10 -1 5 -46 19 -98 31 -109 24 -361 34 -475 18z"/>
<path d="M11799 13472 c-63 -15 -68 -18 -88 -59 -12 -24 -21 -54 -21 -68 0
-27 19 -75 31 -75 4 0 9 -10 13 -23 3 -12 19 -36 36 -52 l31 -30 231 -2 c126
-2 247 -7 268 -13 21 -6 75 -28 119 -50 45 -22 87 -40 96 -40 27 0 190 -117
235 -169 25 -29 68 -77 97 -107 28 -31 54 -62 57 -70 3 -8 10 -14 16 -14 12 0
13 -8 -4 70 -12 57 -32 103 -98 223 -32 58 -238 258 -304 295 -17 9 -54 32
-83 51 -49 33 -72 43 -222 97 -79 28 -223 54 -293 53 -28 -1 -81 -8 -117 -17z"/>
<path d="M10100 10088 c-16 -98 -15 -118 5 -232 19 -110 18 -116 -6 -41 -10
33 -24 108 -30 168 -7 59 -16 107 -20 107 -18 0 -27 -121 -18 -255 10 -141 29
-210 29 -104 l0 54 25 -69 c13 -37 26 -71 29 -74 12 -12 57 -10 62 3 3 7 -6
80 -20 163 -17 96 -26 187 -26 256 0 58 -4 106 -8 106 -5 0 -14 -37 -22 -82z"/>
<path d="M10173 10113 c-23 -53 -25 -144 -7 -263 9 -63 19 -132 21 -152 4 -28
10 -38 23 -38 10 0 21 -6 23 -12 4 -10 8 -9 17 2 12 16 8 400 -5 433 -16 40
-20 8 -18 -160 l1 -178 -18 140 c-11 77 -20 166 -21 198 -1 31 -2 57 -3 57 -1
0 -6 -12 -13 -27z"/>
<path d="M10698 10104 c-17 -17 -8 -176 18 -309 19 -102 27 -133 40 -149 25
-35 33 -5 17 69 -25 122 -55 288 -62 343 -3 30 -9 50 -13 46z"/>
<path d="M10813 10095 c18 -64 37 -166 53 -280 10 -78 22 -134 30 -141 8 -6
14 -18 14 -27 0 -27 22 -31 40 -7 20 26 40 19 40 -13 1 -22 1 -22 15 -3 14 19
15 18 15 -13 0 -25 4 -32 17 -29 25 5 33 66 22 168 -5 47 -8 94 -8 105 0 40
40 -132 47 -204 7 -71 23 -100 36 -65 3 9 -1 54 -10 101 -8 46 -14 89 -11 96
4 13 37 -154 37 -189 0 -12 5 -35 11 -53 9 -25 14 -29 25 -20 11 9 14 6 14
-16 0 -44 24 -23 30 26 l6 44 5 -58 c6 -61 21 -89 39 -71 21 21 -34 303 -64
329 -6 6 -19 27 -29 48 -9 21 -22 35 -28 32 -6 -4 -6 -11 -1 -18 9 -12 32
-129 32 -158 -1 -8 -11 15 -24 51 -41 115 -48 130 -56 130 -5 0 -11 -6 -13
-12 -4 -9 -6 -8 -6 3 -1 8 -12 39 -26 67 -14 29 -25 56 -25 62 0 5 -7 10 -15
10 -8 0 -15 7 -15 15 0 21 -20 19 -21 -2 0 -20 -4 -13 -29 55 -15 38 -35 44
-26 6 5 -19 3 -24 -5 -18 -9 5 -10 0 -5 -17 3 -13 9 -46 11 -74 4 -44 3 -45
-4 -13 -4 21 -15 55 -24 75 -8 21 -18 51 -22 66 -3 15 -9 25 -14 22 -5 -3 -5
-21 0 -42 5 -21 8 -51 8 -68 -1 -24 -5 -18 -19 29 -11 33 -26 66 -36 75 -15
15 -16 14 -11 -4z m195 -235 c0 -16 -3 -10 -9 15 -4 22 -8 54 -7 70 0 22 3 19
9 -15 4 -25 7 -56 7 -70z m9 -82 c-3 -7 -5 -2 -5 12 0 14 2 19 5 13 2 -7 2
-19 0 -25z m200 -90 c-3 -7 -5 -2 -5 12 0 14 2 19 5 13 2 -7 2 -19 0 -25z m10
-60 c-3 -8 -6 -5 -6 6 -1 11 2 17 5 13 3 -3 4 -12 1 -19z"/>
<path d="M10274 9856 c4 -132 8 -242 11 -244 13 -14 25 18 27 71 l2 62 3 -52
c5 -60 16 -66 53 -26 25 26 25 28 25 197 0 94 -3 183 -8 199 -12 44 -27 32
-20 -18 7 -57 -12 -62 -22 -5 -12 69 -25 44 -19 -37 3 -43 1 -112 -4 -153 l-9
-75 -2 97 c-1 101 -16 196 -33 213 -7 7 -8 -72 -4 -229z"/>
<path d="M10747 10063 c-3 -15 1 -77 9 -138 36 -268 30 -251 82 -261 30 -6 32
-5 32 22 -1 56 -38 292 -56 348 -29 92 -43 65 -25 -46 4 -27 5 -48 1 -48 -9 0
-20 62 -20 113 0 43 -15 50 -23 10z m56 -208 c3 -41 2 -60 -3 -45 -8 25 -13
127 -6 119 2 -2 6 -35 9 -74z"/>
<path d="M9992 10058 c-19 -38 -32 -136 -28 -211 3 -59 2 -55 -7 23 -7 66 -7
111 0 145 12 54 9 65 -10 46 -18 -18 -17 -387 1 -419 21 -37 31 -16 27 56 -3
52 -2 57 3 22 9 -53 18 -70 38 -70 17 0 17 15 4 130 -5 47 -10 133 -12 193 -1
59 -3 107 -3 107 -1 0 -7 -10 -13 -22z"/>
<path d="M10654 10034 c-7 -46 -4 -91 16 -274 11 -99 18 -117 45 -106 12 4 15
13 11 29 -27 94 -46 215 -46 300 0 102 -14 129 -26 51z"/>
<path d="M9890 10035 c-10 -22 -14 -75 -15 -194 0 -170 -4 -164 -26 39 -12
117 -24 144 -34 78 -7 -47 -3 -134 13 -260 12 -88 18 -102 40 -93 8 3 19 0 23
-6 4 -7 14 -9 23 -6 14 5 16 16 10 55 -3 27 -9 131 -13 233 -6 168 -8 181 -21
154z"/>
<path d="M10613 10052 c-7 -4 -17 -31 -24 -60 -17 -81 20 -292 51 -292 18 0
19 19 4 86 -24 112 -33 191 -24 231 10 42 9 45 -7 35z"/>
<path d="M9746 9963 c-3 -21 -6 -65 -6 -98 1 -72 23 -262 33 -271 12 -13 37 6
37 28 0 13 -9 86 -20 163 -11 77 -20 157 -20 178 0 20 -4 37 -9 37 -4 0 -11
-17 -15 -37z"/>
<path d="M9694 9923 c-7 -48 2 -275 12 -325 7 -30 31 -38 40 -13 3 8 -1 50
-10 93 -9 44 -16 127 -16 185 0 111 -13 142 -26 60z"/>
<path d="M9656 9918 c-3 -7 -9 -28 -15 -47 -15 -48 -14 -280 2 -314 26 -56 32
-21 32 176 0 172 -6 229 -19 185z"/>
<path d="M9555 9824 c-11 -37 -15 -87 -14 -148 2 -102 5 -116 26 -116 8 0 12
-4 8 -9 -7 -13 15 -26 25 -15 12 14 24 314 12 314 -5 0 -15 -21 -21 -47 l-10
-48 5 63 c6 78 -9 81 -31 6z"/>
<path d="M9456 9829 c-34 -77 -33 -300 1 -335 14 -14 17 -13 34 5 17 18 19 37
19 171 0 148 -12 198 -25 103 -10 -75 -15 -74 -12 2 1 39 6 73 11 76 4 4 4 9
-1 12 -5 3 -18 -12 -27 -34z"/>
<path d="M9369 9793 c-20 -33 -23 -54 -27 -170 -4 -117 -2 -134 12 -139 9 -4
20 -4 23 0 3 3 5 62 4 130 -1 68 3 143 9 166 15 55 8 60 -21 13z"/>
<path d="M9412 9808 c-16 -16 -17 -311 -1 -306 7 2 12 56 13 161 0 86 1 157 1
157 -1 0 -6 -5 -13 -12z"/>
<path d="M9253 9803 c4 -3 1 -11 -7 -17 -25 -21 -58 -325 -38 -355 19 -26 32
1 34 67 l1 67 6 -59 c4 -34 11 -61 19 -64 6 -2 12 1 12 7 0 6 8 11 19 11 17 0
19 12 25 143 4 78 9 154 12 170 3 15 1 27 -4 27 -6 0 -15 -12 -20 -27 -8 -21
-11 -23 -11 -8 -2 35 -24 -1 -38 -62 l-13 -58 5 67 c3 37 8 75 11 83 4 8 1 15
-7 15 -7 0 -9 -3 -6 -7z m44 -205 c-2 -24 -4 -5 -4 42 0 47 2 66 4 43 2 -24 2
-62 0 -85z"/>
<path d="M11230 9785 c0 -3 6 -16 14 -28 19 -30 47 -152 54 -238 5 -48 12 -74
21 -77 11 -4 12 11 7 84 -8 101 -29 184 -58 232 -17 28 -38 43 -38 27z"/>
<path d="M7710 9760 c-8 -5 -11 -12 -7 -16 4 -4 13 -2 19 4 15 15 7 24 -12 12z"/>
<path d="M11300 9755 c0 -8 5 -15 10 -15 6 0 10 7 10 15 0 8 -4 15 -10 15 -5
0 -10 -7 -10 -15z"/>
<path d="M9142 9693 c-38 -87 -74 -295 -52 -308 21 -13 29 9 46 139 9 71 22
147 30 169 16 46 16 47 6 47 -5 0 -18 -21 -30 -47z"/>
<path d="M9193 9728 c-7 -8 -8 -19 -3 -28 8 -12 10 -12 15 2 10 26 2 43 -12
26z"/>
<path d="M11315 9717 c-4 -9 0 -48 10 -85 9 -37 19 -76 21 -87 15 -82 36 -165
43 -169 4 -3 13 -1 20 4 11 6 9 29 -12 123 -14 64 -35 135 -45 159 -11 24 -22
50 -25 58 -4 12 -6 12 -12 -3z"/>
<path d="M9101 9703 c-6 -10 -11 -12 -11 -5 0 21 -16 13 -30 -15 -7 -16 -24
-55 -37 -88 l-24 -60 6 55 c4 30 10 59 14 65 5 5 12 21 16 35 l7 25 -28 -25
c-16 -14 -22 -17 -15 -7 8 9 11 20 8 23 -7 7 -77 -64 -77 -77 0 -4 -14 -14
-30 -23 -17 -8 -28 -10 -25 -5 4 5 2 9 -4 9 -16 0 -61 -53 -61 -72 0 -10 -6
-18 -14 -18 -19 0 -26 -22 -38 -125 -15 -129 -15 -187 0 -192 7 -3 12 4 12 16
0 12 6 21 15 21 8 0 15 7 15 15 0 8 6 12 14 9 17 -7 56 41 56 70 1 19 2 19 11
4 5 -10 16 -18 24 -18 13 0 21 21 38 95 3 15 5 13 6 -7 0 -16 6 -28 11 -28 6
0 10 -9 10 -19 0 -24 18 -37 32 -23 6 6 14 25 18 44 7 30 8 31 9 6 1 -26 17
-46 28 -34 8 8 32 181 33 233 0 23 5 54 12 70 6 15 12 30 12 33 1 3 5 11 9 18
5 6 4 12 -2 12 -5 0 -15 -8 -20 -17z m-181 -188 c-16 -55 -30 -111 -31 -125
-1 -19 -2 -21 -6 -6 -5 18 12 89 44 189 28 89 22 43 -7 -58z m-58 30 c-2 -14
-9 -25 -14 -25 -6 0 -7 7 -4 16 3 9 6 20 6 25 0 5 4 9 9 9 4 0 6 -11 3 -25z
m135 -37 c-3 -8 -6 -5 -6 6 -1 11 2 17 5 13 3 -3 4 -12 1 -19z m-40 -50 c-3
-8 -6 -5 -6 6 -1 11 2 17 5 13 3 -3 4 -12 1 -19z"/>
<path d="M11350 9704 c0 -2 7 -15 15 -28 16 -24 85 -281 85 -316 0 -14 7 -20
21 -20 20 0 21 4 14 48 -17 119 -87 303 -119 315 -9 4 -16 4 -16 1z"/>
<path d="M9179 9675 c-10 -15 -31 -196 -27 -234 4 -46 25 -51 33 -9 8 42 2
256 -6 243z"/>
<path d="M11449 9621 c6 -10 22 -72 37 -137 29 -133 44 -176 59 -170 5 1 9 16
8 32 l-2 29 10 -28 c6 -15 16 -26 23 -24 6 2 16 -10 21 -27 6 -17 15 -31 20
-31 21 0 16 80 -10 162 -15 46 -25 86 -22 89 6 6 26 -51 62 -176 28 -97 37
-115 58 -115 7 0 13 -10 15 -22 4 -27 19 -30 24 -5 6 31 -20 188 -36 218 -21
39 -45 69 -50 63 -3 -2 4 -31 15 -63 11 -32 18 -61 15 -64 -3 -2 -10 8 -16 24
-5 16 -16 42 -25 57 -8 16 -15 35 -15 42 0 8 -18 33 -40 55 -22 22 -40 45 -40
50 0 6 -4 10 -10 10 -13 0 -13 3 6 -70 20 -77 12 -90 -11 -18 -19 58 -72 137
-93 138 -9 0 -10 -5 -3 -19z m98 -233 c-3 -8 -6 -5 -6 6 -1 11 2 17 5 13 3 -3
4 -12 1 -19z"/>
<path d="M11740 9412 c0 -4 5 -23 10 -42 11 -35 18 -63 42 -174 16 -70 35 -84
41 -29 2 24 4 12 5 -30 2 -76 15 -112 39 -103 10 4 13 2 10 -8 -3 -8 1 -17 9
-20 22 -9 27 18 21 111 -5 63 -13 98 -34 141 -35 72 -32 69 -43 52 -8 -13 -10
-12 -10 3 0 9 -11 22 -25 29 -14 6 -29 25 -35 44 -10 30 -30 47 -30 26z m70
-117 c0 -5 -5 -3 -10 5 -5 8 -10 20 -10 25 0 6 5 3 10 -5 5 -8 10 -19 10 -25z
m18 -70 c0 -16 -2 -15 -8 5 -11 34 -11 60 0 35 5 -11 8 -29 8 -40z m41 -15
l-1 -25 -8 25 c-4 14 -8 32 -9 40 -1 13 0 13 9 0 5 -8 9 -26 9 -40z m8 -62
c-3 -8 -6 -5 -6 6 -1 11 2 17 5 13 3 -3 4 -12 1 -19z"/>
<path d="M11915 9218 c4 -13 9 -65 12 -115 3 -51 9 -93 14 -93 13 0 11 161 -2
199 -12 35 -35 44 -24 9z"/>
<path d="M8230 8909 c0 -5 5 -7 10 -4 6 3 10 8 10 11 0 2 -4 4 -10 4 -5 0 -10
-5 -10 -11z"/>
<path d="M10970 8897 c-25 -6 -47 -13 -50 -17 -10 -13 -39 -19 -45 -10 -4 6
-15 10 -26 10 -10 0 -19 5 -19 12 0 6 -3 9 -6 6 -3 -4 2 -20 10 -37 23 -43 20
-52 -4 -13 -11 18 -24 30 -29 27 -5 -3 -11 1 -14 7 -3 8 -9 3 -16 -12 -10 -23
-11 -23 -7 -2 2 12 0 22 -5 22 -5 0 -9 -5 -9 -11 0 -6 -7 -9 -15 -5 -10 3 -15
-1 -15 -13 0 -10 -7 -18 -15 -18 -8 0 -15 9 -15 19 0 10 -4 18 -10 18 -5 0
-10 -7 -10 -17 0 -14 -2 -14 -20 2 -20 18 -20 17 -19 -11 0 -16 6 -72 12 -124
10 -77 15 -95 30 -98 11 -2 17 3 17 13 0 13 3 15 13 7 7 -6 25 -9 40 -8 18 2
27 -1 27 -11 0 -8 6 -13 13 -10 6 2 11 16 10 30 -1 23 3 27 34 33 33 6 35 8
29 38 -5 31 -5 31 8 7 8 -15 25 -26 41 -28 25 -4 27 -2 23 22 -4 19 -2 23 5
16 29 -29 37 9 10 49 -16 24 -15 24 13 -2 l30 -27 13 21 c8 13 10 23 4 25 -6
2 -25 15 -43 28 -44 32 -18 32 46 0 58 -30 54 -29 54 -10 0 9 -14 22 -31 29
l-31 13 26 7 c29 7 36 37 9 35 -10 -1 -38 -6 -63 -12z m-55 -67 c3 -5 2 -10
-4 -10 -5 0 -13 5 -16 10 -3 6 -2 10 4 10 5 0 13 -4 16 -10z m-188 -22 c-3 -8
-6 -5 -6 6 -1 11 2 17 5 13 3 -3 4 -12 1 -19z"/>
<path d="M10981 7824 c0 -11 3 -14 6 -6 3 7 2 16 -1 19 -3 4 -6 -2 -5 -13z"/>
<path d="M6838 11894 c-46 -14 -91 -260 -86 -480 3 -128 3 -128 12 -57 5 40
12 70 17 67 5 -3 9 15 9 40 0 24 4 66 9 93 6 26 15 80 21 118 17 100 43 152
82 160 21 5 33 3 39 -6 6 -11 9 -9 15 5 14 36 -64 75 -118 60z"/>
<path d="M7090 11702 c0 -5 7 -15 15 -22 8 -7 15 -8 15 -2 0 5 -7 15 -15 22
-8 7 -15 8 -15 2z"/>
<path d="M7101 11291 c0 -8 -13 -27 -27 -42 -14 -14 -26 -33 -28 -42 -1 -8 -8
-22 -15 -31 -15 -17 -9 -32 8 -22 19 12 72 116 68 133 -3 12 -5 13 -6 4z"/>
<path d="M6990 11130 c0 -5 5 -10 10 -10 6 0 10 5 10 10 0 6 -4 10 -10 10 -5
0 -10 -4 -10 -10z"/>
<path d="M6741 11045 c0 -22 4 -47 9 -55 8 -12 9 -10 9 10 -1 14 -5 39 -9 55
-7 29 -8 29 -9 -10z"/>
<path d="M6970 11036 c-5 -14 -14 -26 -20 -26 -11 0 -14 -43 -4 -53 4 -3 15 4
26 16 14 16 18 17 14 5 -7 -24 16 -40 32 -22 7 8 8 14 3 14 -6 0 -14 18 -17
40 -8 50 -21 59 -34 26z"/>
<path d="M7010 11020 c0 -5 5 -10 11 -10 5 0 7 5 4 10 -3 6 -8 10 -11 10 -2 0
-4 -4 -4 -10z"/>
<path d="M6752 10945 c0 -16 2 -22 5 -12 2 9 2 23 0 30 -3 6 -5 -1 -5 -18z"/>
<path d="M6951 10924 c0 -11 3 -14 6 -6 3 7 2 16 -1 19 -3 4 -6 -2 -5 -13z"/>
<path d="M6986 10692 c-7 -11 26 -59 53 -78 12 -9 30 -32 40 -53 11 -20 27
-44 36 -51 21 -17 65 -103 65 -127 1 -10 7 -31 14 -48 10 -25 13 -26 19 -12 4
12 3 16 -4 11 -8 -4 -9 3 -5 22 18 85 17 137 -6 183 -20 43 -71 101 -87 101
-4 0 -20 14 -36 30 -28 29 -77 41 -89 22z"/>
</g>
</svg>
